# xmcd
#
# Track frame offsets:
#	150
#	19702
#	39641
#	54402
#	80785
#	94187
#	106125
#	122588
#	134925
#	151380
#
# Disc length: 2212 seconds
#
# Revision: 0
# Processed by: cddbd v1.5.2PL0 Copyright (c) Steve Scherf et al.
# Submitted via: EZCDAudioConverter 2.1.7.1
#
DISCID=8308a20a
DTITLE=V/A - Lost Highway Sampler 4
DYEAR=1900
DGENRE=
TTITLE0=Ryan Adams - Now That You're Gone
TTITLE1=Tift Merritt - Ain't Looking Closely
TTITLE2=Glen Phillips - Duck And Cover
TTITLE3=Mary Gauthier - Mercy Now
TTITLE4=Ruth Brown - Mama, He Treats Your Daughter Mean
TTITLE5=Elvis Costello - The Monkey
TTITLE6=Sam Roberts - Dead End
TTITLE7=Hank Williams - Honky Tonkin'
TTITLE8=Willie Nelson - Picture In A Frame
TTITLE9=Kim Richey - No Judges
EXTD=
EXTT0=
EXTT1=
EXTT2=
EXTT3=
EXTT4=
EXTT5=
EXTT6=
EXTT7=
EXTT8=
EXTT9=
PLAYORDER=
